{
  "accessors": [
    {
      "bufferView": 2,
      "componentType": 5126,
      "count": 3528,
      "max": [
        3.8606553077697754,
        3.1437246799468994,
        1.778667688369751
      ],
      "min": [
        -4.0775980949401855,
        0.70872259140014648,
        -0.95164191722869873
      ],
      "type": "VEC3"
    },
    {
      "bufferView": 2,
      "byteOffset": 42336,
      "componentType": 5126,
      "count": 3528,
      "max": [
        1,
        0.99060261249542236,
        0.99994790554046631
      ],
      "min": [
        -1,
        -0.99055737257003784,
        -0.99994784593582153
      ],
      "type": "VEC3"
    },
    {
      "bufferView": 1,
      "componentType": 5126,
      "count": 3528,
      "max": [
        0.99999988079071045,
        1
      ],
      "min": [
        0,
        0
      ],
      "type": "VEC2"
    },
    {
      "bufferView": 0,
      "componentType": 5125,
      "count": 13056,
      "max": [
        3527
      ],
      "min": [
        0
      ],
      "type": "SCALAR"
    },
    {
      "bufferView": 2,
      "byteOffset": 84672,
      "componentType": 5126,
      "count": 3843,
      "max": [
        3.9449629783630371,
        3.1633684635162354,
        1.7693778276443481
      ],
      "min": [
        -4.1619057655334473,
        0.83514142036437988,
        -1.0255093574523926
      ],
      "type": "VEC3"
    },
    {
      "bufferView": 2,
      "byteOffset": 130788,
      "componentType": 5126,
      "count": 3843,
      "max": [
        1,
        1,
        1
      ],
      "min": [
        -1,
        -1,
        -1
      ],
      "type": "VEC3"
    },
    {
      "bufferView": 1,
      "byteOffset": 28224,
      "componentType": 5126,
      "count": 3843,
      "max": [
        0.99999988079071045,
        1
      ],
      "min": [
        0,
        0
      ],
      "type": "VEC2"
    },
    {
      "bufferView": 0,
      "byteOffset": 52224,
      "componentType": 5125,
      "count": 14406,
      "max": [
        3842
      ],
      "min": [
        0
      ],
      "type": "SCALAR"
    },
    {
      "bufferView": 2,
      "byteOffset": 176904,
      "componentType": 5126,
      "count": 1394,
      "max": [
        3.9550666809082031,
        3.1465532779693604,
        1.6151602268218994
      ],
      "min": [
        -4.1720094680786133,
        0.95976239442825317,
        -0.7534862756729126
      ],
      "type": "VEC3"
    },
    {
      "bufferView": 2,
      "byteOffset": 193632,
      "componentType": 5126,
      "count": 1394,
      "max": [
        1,
        1,
        1
      ],
      "min": [
        -1,
        -0.99060267210006714,
        -1
      ],
      "type": "VEC3"
    },
    {
      "bufferView": 1,
      "byteOffset": 58968,
      "componentType": 5126,
      "count": 1394,
      "max": [
        1,
        1
      ],
      "min": [
        0,
        0
      ],
      "type": "VEC2"
    },
    {
      "bufferView": 0,
      "byteOffset": 109848,
      "componentType": 5125,
      "count": 3084,
      "max": [
        1393
      ],
      "min": [
        0
      ],
      "type": "SCALAR"
    },
    {
      "bufferView": 2,
      "byteOffset": 210360,
      "componentType": 5126,
      "count": 1259,
      "max": [
        3.8484883308410645,
        3.148684024810791,
        1.561726450920105
      ],
      "min": [
        -4.0654311180114746,
        0.75531911849975586,
        -1.6257946491241455
      ],
      "type": "VEC3"
    },
    {
      "bufferView": 2,
      "byteOffset": 225468,
      "componentType": 5126,
      "count": 1259,
      "max": [
        1,
        1,
        1
      ],
      "min": [
        -1,
        -1,
        -0.99976712465286255
      ],
      "type": "VEC3"
    },
    {
      "bufferView": 1,
      "byteOffset": 70120,
      "componentType": 5126,
      "count": 1259,
      "max": [
        0.66382193565368652,
        1
      ],
      "min": [
        0.34375,
        0.0068640029057860374
      ],
      "type": "VEC2"
    },
    {
      "bufferView": 0,
      "byteOffset": 122184,
      "componentType": 5125,
      "count": 4260,
      "max": [
        1258
      ],
      "min": [
        0
      ],
      "type": "SCALAR"
    },
    {
      "bufferView": 2,
      "byteOffset": 240576,
      "componentType": 5126,
      "count": 1850,
      "max": [
        3.8484883308410645,
        3.148104190826416,
        1.5111862421035767
      ],
      "min": [
        -4.0654311180114746,
        -0.098636187613010406,
        -1.778667688369751
      ],
      "type": "VEC3"
    },
    {
      "bufferView": 2,
      "byteOffset": 262776,
      "componentType": 5126,
      "count": 1850,
      "max": [
        1,
        0.99836790561676025,
        0.99976712465286255
      ],
      "min": [
        -1,
        -1,
        -1
      ],
      "type": "VEC3"
    },
    {
      "bufferView": 1,
      "byteOffset": 80192,
      "componentType": 5126,
      "count": 1850,
      "max": [
        0.66382193565368652,
        1
      ],
      "min": [
        0.34375,
        1.4901161193847656e-08
      ],
      "type": "VEC2"
    },
    {
      "bufferView": 0,
      "byteOffset": 139224,
      "componentType": 5125,
      "count": 5730,
      "max": [
        1849
      ],
      "min": [
        0
      ],
      "type": "SCALAR"
    },
    {
      "bufferView": 2,
      "byteOffset": 284976,
      "componentType": 5126,
      "count": 296,
      "max": [
        3.8484883308410645,
        2.7168340682983398,
        1.1299104690551758
      ],
      "min": [
        -4.0654311180114746,
        0.33312821388244629,
        -1.5389939546585083
      ],
      "type": "VEC3"
    },
    {
      "bufferView": 2,
      "byteOffset": 288528,
      "componentType": 5126,
      "count": 296,
      "max": [
        1,
        0.85572463274002075,
        0.86672288179397583
      ],
      "min": [
        -1,
        -0.94565242528915405,
        -0.8667227029800415
      ],
      "type": "VEC3"
    },
    {
      "bufferView": 1,
      "byteOffset": 94992,
      "componentType": 5126,
      "count": 296,
      "max": [
        0.55524277687072754,
        0.68843984603881836
      ],
      "min": [
        0.36663228273391724,
        1.4901161193847656e-08
      ],
      "type": "VEC2"
    },
    {
      "bufferView": 0,
      "byteOffset": 162144,
      "componentType": 5125,
      "count": 636,
      "max": [
        295
      ],
      "min": [
        0
      ],
      "type": "SCALAR"
    },
    {
      "bufferView": 2,
      "byteOffset": 292080,
      "componentType": 5126,
      "count": 428,
      "max": [
        3.6655240058898926,
        3.148104190826416,
        0.77371960878372192
      ],
      "min": [
        -3.8824663162231445,
        0.68931913375854492,
        -1.4880855083465576
      ],
      "type": "VEC3"
    },
    {
      "bufferView": 2,
      "byteOffset": 297216,
      "componentType": 5126,
      "count": 428,
      "max": [
        1,
        1,
        0.91988527774810791
      ],
      "min": [
        -1,
        -1,
        -1
      ],
      "type": "VEC3"
    },
    {
      "bufferView": 1,
      "byteOffset": 97360,
      "componentType": 5126,
      "count": 428,
      "max": [
        0.65625,
        1
      ],
      "min": [
        0.34375,
        1.4901161193847656e-08
      ],
      "type": "VEC2"
    },
    {
      "bufferView": 0,
      "byteOffset": 164688,
      "componentType": 5125,
      "count": 1200,
      "max": [
        427
      ],
      "min": [
        0
      ],
      "type": "SCALAR"
    },
    {
      "bufferView": 2,
      "byteOffset": 302352,
      "componentType": 5126,
      "count": 36,
      "max": [
        3.754523754119873,
        0.8100816011428833,
        0.16727006435394287
      ],
      "min": [
        -3.9714665412902832,
        0.75531911849975586,
        -0.38421261310577393
      ],
      "type": "VEC3"
    },
    {
      "bufferView": 2,
      "byteOffset": 302784,
      "componentType": 5126,
      "count": 36,
      "max": [
        0.546988844871521,
        -0.79491597414016724,
        0.26251101493835449
      ],
      "min": [
        -0.54698634147644043,
        -0.85168802738189697,
        -0.26251101493835449
      ],
      "type": "VEC3"
    },
    {
      "bufferView": 1,
      "byteOffset": 100784,
      "componentType": 5126,
      "count": 36,
      "max": [
        0.55548334121704102,
        0.022981962189078331
      ],
      "min": [
        0.51657116413116455,
        0.0068640029057860374
      ],
      "type": "VEC2"
    },
    {
      "bufferView": 0,
      "byteOffset": 169488,
      "componentType": 5125,
      "count": 96,
      "max": [
        35
      ],
      "min": [
        0
      ],
      "type": "SCALAR"
    }
  ],
  "asset": {
    "extras": {
      "author": "El3cT (https://sketchfab.com/El3cT)",
      "license": "CC-BY-4.0 (http://creativecommons.org/licenses/by/4.0/)",
      "source": "https://sketchfab.com/3d-models/capsule-4e19ce19e0794a86b66b033f2854a7c9",
      "title": "Capsule"
    },
    "generator": "Sketchfab-9.85.0",
    "version": "2.0"
  },
  "bufferViews": [
    {
      "buffer": 0,
      "byteLength": 169872,
      "byteOffset": 0,
      "name": "floatBufferViews",
      "target": 34963
    },
    {
      "buffer": 0,
      "byteLength": 101072,
      "byteOffset": 169872,
      "byteStride": 8,
      "name": "floatBufferViews",
      "target": 34962
    },
    {
      "buffer": 0,
      "byteLength": 303216,
      "byteOffset": 270944,
      "byteStride": 12,
      "name": "floatBufferViews",
      "target": 34962
    }
  ],
  "buffers": [
    {
      "byteLength": 574160,
      "uri": "scene.bin"
    }
  ],
  "materials": [
    {
      "doubleSided": true,
      "emissiveFactor": [
        0,
        0,
        0
      ],
      "name": "Steel_2",
      "pbrMetallicRoughness": {
        "baseColorFactor": [
          0.091899999999999996,
          0.089599999999999999,
          0.087099999999999997,
          1
        ],
        "metallicFactor": 0,
        "roughnessFactor": 0.59999999999999998
      }
    },
    {
      "doubleSided": true,
      "emissiveFactor": [
        0,
        0,
        0
      ],
      "name": "Steel",
      "pbrMetallicRoughness": {
        "baseColorFactor": [
          0.12,
          0.1193,
          0.11849999999999999,
          1
        ],
        "metallicFactor": 0,
        "roughnessFactor": 0.59999999999999998
      }
    },
    {
      "doubleSided": true,
      "emissiveFactor": [
        0,
        0,
        0
      ],
      "name": "Steel_3",
      "pbrMetallicRoughness": {
        "baseColorFactor": [
          0.086599999999999996,
          0.083199999999999996,
          0.079799999999999996,
          1
        ],
        "metallicFactor": 0,
        "roughnessFactor": 0.59999999999999998
      }
    },
    {
      "doubleSided": true,
      "emissiveFactor": [
        0,
        0,
        0
      ],
      "name": "White",
      "pbrMetallicRoughness": {
        "baseColorFactor": [
          0.81484699999999999,
          0.78354400000000002,
          0.737923,
          1
        ],
        "metallicFactor": 0,
        "roughnessFactor": 0.59999999999999998
      }
    },
    {
      "doubleSided": true,
      "emissiveFactor": [
        0,
        0,
        0
      ],
      "name": "material",
      "pbrMetallicRoughness": {
        "baseColorFactor": [
          0.47931200000000002,
          0.056129699999999998,
          0.033104000000000001,
          1
        ],
        "metallicFactor": 0,
        "roughnessFactor": 0.59999999999999998
      }
    },
    {
      "doubleSided": true,
      "emissiveFactor": [
        0,
        0,
        0
      ],
      "name": "Orange_2",
      "pbrMetallicRoughness": {
        "baseColorFactor": [
          0.65838699999999994,
          0.30499500000000002,
          0.10224,
          1
        ],
        "metallicFactor": 0,
        "roughnessFactor": 0.59999999999999998
      }
    },
    {
      "doubleSided": true,
      "emissiveFactor": [
        0,
        0,
        0
      ],
      "name": "Red1",
      "pbrMetallicRoughness": {
        "baseColorFactor": [
          0.442,
          0.093030699999999994,
          0.056576000000000001,
          1
        ],
        "metallicFactor": 0,
        "roughnessFactor": 0.59999999999999998
      }
    },
    {
      "doubleSided": true,
      "emissiveFactor": [
        0,
        0,
        0
      ],
      "name": "lambert1",
      "pbrMetallicRoughness": {
        "baseColorFactor": [
          0.5,
          0.5,
          0.5,
          1
        ],
        "metallicFactor": 0,
        "roughnessFactor": 0.59999999999999998
      }
    }
  ],
  "meshes": [
    {
      "name": "polySurface133_Steel_2_0",
      "primitives": [
        {
          "attributes": {
            "NORMAL": 1,
            "POSITION": 0,
            "TEXCOORD_0": 2
          },
          "indices": 3,
          "material": 0,
          "mode": 4
        }
      ]
    },
    {
      "name": "polySurface133_Steel_0",
      "primitives": [
        {
          "attributes": {
            "NORMAL": 5,
            "POSITION": 4,
            "TEXCOORD_0": 6
          },
          "indices": 7,
          "material": 1,
          "mode": 4
        }
      ]
    },
    {
      "name": "polySurface133_Steel_3_0",
      "primitives": [
        {
          "attributes": {
            "NORMAL": 9,
            "POSITION": 8,
            "TEXCOORD_0": 10
          },
          "indices": 11,
          "material": 2,
          "mode": 4
        }
      ]
    },
    {
      "name": "polySurface133_White_0",
      "primitives": [
        {
          "attributes": {
            "NORMAL": 13,
            "POSITION": 12,
            "TEXCOORD_0": 14
          },
          "indices": 15,
          "material": 3,
          "mode": 4
        }
      ]
    },
    {
      "name": "polySurface133_Red_0",
      "primitives": [
        {
          "attributes": {
            "NORMAL": 17,
            "POSITION": 16,
            "TEXCOORD_0": 18
          },
          "indices": 19,
          "material": 4,
          "mode": 4
        }
      ]
    },
    {
      "name": "polySurface133_Orange_2_0",
      "primitives": [
        {
          "attributes": {
            "NORMAL": 21,
            "POSITION": 20,
            "TEXCOORD_0": 22
          },
          "indices": 23,
          "material": 5,
          "mode": 4
        }
      ]
    },
    {
      "name": "polySurface133_Red1_0",
      "primitives": [
        {
          "attributes": {
            "NORMAL": 25,
            "POSITION": 24,
            "TEXCOORD_0": 26
          },
          "indices": 27,
          "material": 6,
          "mode": 4
        }
      ]
    },
    {
      "name": "polySurface133_lambert1_0",
      "primitives": [
        {
          "attributes": {
            "NORMAL": 29,
            "POSITION": 28,
            "TEXCOORD_0": 30
          },
          "indices": 31,
          "material": 7,
          "mode": 4
        }
      ]
    }
  ],
  "nodes": [
    {
      "children": [
        1
      ],
      "name": "RootNode (gltf orientation matrix)",
      "rotation": [
        -0.70710678118654746,
        -0,
        -0,
        0.70710678118654757
      ]
    },
    {
      "children": [
        2
      ],
      "name": "RootNode (model correction matrix)"
    },
    {
      "children": [
        3
      ],
      "matrix": [
        1,
        0,
        0,
        0,
        0,
        0,
        1,
        0,
        0,
        -1,
        0,
        0,
        0,
        0,
        0,
        1
      ],
      "name": "4684942ae7d14323a48a0fca1c030a03.fbx"
    },
    {
      "children": [
        4
      ],
      "name": "RootNode"
    },
    {
      "children": [
        5,
        6,
        7,
        8,
        9,
        10,
        11,
        12
      ],
      "name": "polySurface133"
    },
    {
      "mesh": 0,
      "name": "polySurface133_Steel_2_0"
    },
    {
      "mesh": 1,
      "name": "polySurface133_Steel_0"
    },
    {
      "mesh": 2,
      "name": "polySurface133_Steel_3_0"
    },
    {
      "mesh": 3,
      "name": "polySurface133_White_0"
    },
    {
      "mesh": 4,
      "name": "polySurface133_Red_0"
    },
    {
      "mesh": 5,
      "name": "polySurface133_Orange_2_0"
    },
    {
      "mesh": 6,
      "name": "polySurface133_Red1_0"
    },
    {
      "mesh": 7,
      "name": "polySurface133_lambert1_0"
    }
  ],
  "scene": 0,
  "scenes": [
    {
      "name": "OSG_Scene",
      "nodes": [
        0
      ]
    }
  ]
}

